<?xml version="1.0" encoding="iso-8859-1"?>
<!-- Generator: Adobe Illustrator 19.0.0, SVG Export Plug-In . SVG Version: 6.00 Build 0)  -->
<svg version="1.1" id="Layer_1" xmlns="http://www.w3.org/2000/svg" xmlns:xlink="http://www.w3.org/1999/xlink" x="0px" y="0px"
	 viewBox="0 0 512 512" style="enable-background:new 0 0 512 512;" xml:space="preserve">
<polygon style="fill:#FFDB56;" points="9.085,301.011 78.636,256.141 133.824,186.727 206.029,210.989 310.975,75.956 
	384.844,151.771 481.618,98.462 481.618,503.56 9.002,503.56 "/>
<polygon style="fill:#FBA806;" points="447.859,503.56 481.618,503.56 481.618,98.462 447.859,117.058 "/>
<polygon style="fill:#F77935;" points="9.002,503.56 99.024,301.011 133.824,402.286 189.288,310.218 222.079,371.596 
	310.975,136.823 330.57,310.218 383.282,272.879 404.491,320.192 481.618,98.462 481.618,503.56 "/>
<polygon style="fill:#D9510D;" points="447.859,503.56 481.618,503.56 481.618,98.462 447.859,195.513 "/>
<path d="M9.002,110.422c4.662,0,8.44-3.779,8.44-8.44V8.44c0-4.661-3.778-8.44-8.44-8.44s-8.44,3.779-8.44,8.44v93.543
	C0.563,106.643,4.34,110.422,9.002,110.422z"/>
<path d="M502.998,495.121h-12.941V98.462c0-0.336-0.027-0.666-0.065-0.994c-0.009-0.08-0.02-0.159-0.033-0.239
	c-0.045-0.305-0.102-0.605-0.179-0.899c-0.006-0.021-0.009-0.043-0.015-0.063c-0.086-0.32-0.194-0.629-0.315-0.933
	c-0.026-0.064-0.053-0.127-0.081-0.19c-0.115-0.269-0.242-0.532-0.384-0.787c-0.019-0.034-0.035-0.07-0.055-0.104
	c-0.16-0.278-0.339-0.545-0.529-0.802c-0.045-0.061-0.092-0.119-0.138-0.179c-0.172-0.221-0.354-0.433-0.548-0.636
	c-0.035-0.037-0.068-0.075-0.102-0.111c-0.226-0.228-0.468-0.442-0.72-0.645c-0.055-0.045-0.114-0.087-0.17-0.131
	c-0.241-0.183-0.491-0.357-0.753-0.514c-0.021-0.012-0.039-0.028-0.06-0.041c-0.007-0.004-0.015-0.007-0.021-0.011
	c-0.285-0.167-0.582-0.315-0.888-0.449c-0.068-0.029-0.136-0.056-0.204-0.084c-0.257-0.105-0.52-0.197-0.79-0.277
	c-0.056-0.017-0.111-0.037-0.168-0.052c-0.268-0.073-0.539-0.136-0.817-0.182c-0.041-0.007-0.08-0.009-0.12-0.015
	c-0.078-0.012-0.156-0.019-0.234-0.029c-0.264-0.034-0.528-0.054-0.79-0.063c-0.07-0.002-0.14-0.007-0.209-0.007
	c-0.33-0.002-0.656,0.012-0.979,0.048c-0.035,0.003-0.07,0.011-0.105,0.016c-0.294,0.036-0.584,0.09-0.87,0.156
	c-0.07,0.016-0.14,0.032-0.208,0.05c-0.314,0.081-0.622,0.177-0.923,0.293c-0.045,0.017-0.089,0.039-0.134,0.057
	c-0.262,0.107-0.519,0.227-0.769,0.36c-0.045,0.024-0.092,0.039-0.137,0.064l-91.143,50.209l-69.381-71.211
	c-1.703-1.748-4.057-2.673-6.516-2.536c-2.436,0.136-4.695,1.32-6.192,3.248L203.041,201.084l-66.529-22.355
	c-3.366-1.132-7.082-0.034-9.295,2.748l-23.046,28.983c-2.9,3.648-2.294,8.957,1.355,11.858c3.648,2.901,8.956,2.293,11.858-1.354
	l19.361-24.353l66.595,22.377c3.398,1.142,7.15,0.011,9.352-2.821l99.001-127.382l67.106,68.876
	c2.649,2.72,6.789,3.336,10.117,1.502l77.501-42.694l-62.918,180.882l-12.519-27.924c-1.033-2.303-3.043-4.024-5.478-4.689
	c-2.434-0.663-5.041-0.206-7.102,1.255l-41.052,29.079l-17.99-159.196c-0.438-3.872-3.469-6.941-7.337-7.427
	c-3.863-0.479-7.562,1.742-8.941,5.386l-33.839,89.369c-1.651,4.359,0.545,9.231,4.903,10.881c4.362,1.651,9.231-0.545,10.881-4.904
	l21.48-56.728l15.676,138.713c0.335,2.966,2.212,5.535,4.938,6.755c2.723,1.22,5.891,0.908,8.326-0.816l44.332-31.403l17.01,37.943
	c1.416,3.156,4.603,5.124,8.067,4.979c3.455-0.15,6.469-2.392,7.606-5.659l60.715-174.553v346.707H21.989l76.029-171.067
	l27.825,80.975c1.066,3.101,3.83,5.303,7.091,5.65c3.269,0.347,6.428-1.229,8.12-4.038l47.794-79.336l25.788,48.27
	c1.561,2.92,4.681,4.661,7.987,4.445c3.304-0.213,6.178-2.337,7.349-5.434l43.071-113.751c1.651-4.359-0.545-9.231-4.903-10.881
	c-4.362-1.65-9.232,0.546-10.881,4.904l-36.492,96.372l-24.035-44.988c-1.43-2.678-4.192-4.382-7.227-4.459
	c-3.073-0.068-5.881,1.481-7.447,4.081l-46.13,76.575l-28.923-84.169c-1.128-3.28-4.148-5.537-7.614-5.688
	c-3.478-0.143-6.672,1.833-8.081,5.004L17.458,463.755l0.065-158.144l65.689-42.379c0.774-0.499,1.459-1.12,2.032-1.84l9.383-11.802
	c2.9-3.648,2.293-8.957-1.355-11.858c-3.648-2.9-8.958-2.294-11.858,1.355l-8.517,10.715l-55.455,35.775V135.74
	c0-4.661-3.778-8.44-8.44-8.44s-8.44,3.779-8.44,8.44V503.56c0,0.039,0.006,0.078,0.006,0.116c0.002,0.116,0.01,0.23,0.017,0.344
	c0.005,0.092,0.006,0.183,0.014,0.276c0.003,0.035,0.002,0.07,0.007,0.105c0.019,0.198,0.054,0.392,0.087,0.585
	c0.014,0.078,0.02,0.156,0.036,0.233c0.047,0.237,0.109,0.469,0.176,0.7c0.01,0.033,0.016,0.066,0.026,0.098
	c0.019,0.062,0.042,0.122,0.061,0.183c0.023,0.066,0.048,0.132,0.073,0.198c0.037,0.104,0.072,0.208,0.114,0.311
	c0.011,0.028,0.019,0.057,0.032,0.086c0.044,0.107,0.097,0.209,0.145,0.314c0.037,0.08,0.075,0.16,0.115,0.239
	c0.015,0.029,0.028,0.06,0.043,0.089c0.018,0.035,0.033,0.071,0.051,0.105c0.089,0.167,0.189,0.325,0.289,0.485
	c0.027,0.044,0.047,0.091,0.075,0.134c0.008,0.012,0.019,0.024,0.027,0.037c0.012,0.018,0.023,0.037,0.034,0.055
	c0.115,0.172,0.241,0.335,0.368,0.498c0.043,0.055,0.08,0.113,0.125,0.167c0.017,0.02,0.035,0.039,0.052,0.06
	c0.046,0.056,0.098,0.107,0.146,0.161c0.098,0.11,0.195,0.222,0.297,0.327c0.02,0.02,0.037,0.043,0.057,0.064
	c0.001,0.001,0.002,0.002,0.003,0.003c0.048,0.048,0.102,0.09,0.151,0.137c0.077,0.073,0.154,0.143,0.234,0.213
	c0.075,0.066,0.146,0.137,0.224,0.201c0.048,0.039,0.1,0.073,0.15,0.111c0.052,0.041,0.106,0.079,0.159,0.118
	c0.072,0.054,0.143,0.11,0.217,0.162c0.047,0.034,0.092,0.069,0.141,0.101c0.043,0.029,0.089,0.053,0.132,0.08
	c0.189,0.122,0.379,0.24,0.578,0.345c0.029,0.016,0.06,0.028,0.089,0.043c0.215,0.111,0.433,0.217,0.657,0.311
	c0.019,0.008,0.039,0.014,0.059,0.021c0.01,0.003,0.02,0.007,0.03,0.011c0.066,0.027,0.135,0.049,0.203,0.074
	c0.16,0.06,0.32,0.122,0.484,0.171c0.024,0.007,0.047,0.011,0.07,0.018c0.053,0.016,0.109,0.027,0.162,0.042
	c0.089,0.025,0.177,0.047,0.267,0.069c0.1,0.024,0.198,0.052,0.299,0.072c0.063,0.012,0.128,0.018,0.192,0.029
	c0.074,0.012,0.15,0.022,0.224,0.034c0.088,0.013,0.173,0.029,0.261,0.041c0.047,0.006,0.093,0.015,0.142,0.019
	C8.438,511.985,8.72,512,9.002,512h472.615h21.38c4.662,0,8.44-3.779,8.44-8.44S507.66,495.121,502.998,495.121z"/>
<g>
</g>
<g>
</g>
<g>
</g>
<g>
</g>
<g>
</g>
<g>
</g>
<g>
</g>
<g>
</g>
<g>
</g>
<g>
</g>
<g>
</g>
<g>
</g>
<g>
</g>
<g>
</g>
<g>
</g>
</svg>
